# Blender v2.80 (sub 75) OBJ File: ''
# www.blender.org
mtllib simplegate1.mtl
o Cube
v 0.147890 2.180143 -0.147890
v 0.147890 1.884362 -0.147890
v 0.147890 2.180143 0.147890
v 0.147890 1.884362 0.147890
v -0.147890 2.180143 -0.147890
v -0.147890 1.884362 -0.147890
v -0.147890 2.180143 0.147890
v -0.147890 1.884362 0.147890
v 0.147890 1.884362 -0.147890
v -0.147890 1.884362 -0.147890
v 0.147890 2.180143 -0.147890
v -0.147890 2.180143 -0.147890
v 1.409247 2.180143 -0.147890
v 1.409247 1.884362 -0.147890
v 1.409247 2.180143 0.147890
v 1.409247 1.884362 0.147890
v 1.731669 2.180143 -0.147890
v 1.731669 1.884362 -0.147890
v 1.731669 2.180143 0.147890
v 1.731669 1.884362 0.147890
v 1.409247 1.884362 0.147890
v 1.409247 1.884362 -0.147890
v 1.731669 1.884362 0.147890
v 1.731669 1.884362 -0.147890
v 1.409247 0.257569 0.147890
v 1.409247 0.257569 -0.147890
v 1.731669 0.257569 0.147890
v 1.731669 0.257569 -0.147890
v -0.147890 1.834160 -0.147890
v -0.147890 1.834160 0.147890
v 0.147890 1.834160 -0.147890
v 0.147890 1.834160 0.147890
v -0.147890 1.522810 -0.147890
v -0.147890 1.522810 0.147890
v 0.147890 1.522810 -0.147890
v 0.147890 1.522810 0.147890
v 1.003045 1.834160 0.147890
v 1.003045 1.834160 -0.147890
v 1.003045 1.522810 0.147890
v 1.003045 1.522810 -0.147890
v -0.147890 2.180143 -0.147890
v -0.147890 1.884362 -0.147890
v -0.147890 2.180143 0.147890
v -0.147890 1.884362 0.147890
v 0.147890 2.180143 -0.147890
v 0.147890 1.884362 -0.147890
v 0.147890 2.180143 0.147890
v 0.147890 1.884362 0.147890
v -0.147890 1.884362 -0.147890
v 0.147890 1.884362 -0.147890
v -0.147890 2.180143 -0.147890
v 0.147890 2.180143 -0.147890
v -1.409247 2.180143 -0.147890
v -1.409247 1.884362 -0.147890
v -1.409247 2.180143 0.147890
v -1.409247 1.884362 0.147890
v -1.731669 2.180143 -0.147890
v -1.731669 1.884362 -0.147890
v -1.731669 2.180143 0.147890
v -1.731669 1.884362 0.147890
v -1.409247 1.884362 0.147890
v -1.409247 1.884362 -0.147890
v -1.731669 1.884362 0.147890
v -1.731669 1.884362 -0.147890
v -1.409247 0.257569 0.147890
v -1.409247 0.257569 -0.147890
v -1.731669 0.257569 0.147890
v -1.731669 0.257569 -0.147890
v 0.147890 1.834160 -0.147890
v 0.147890 1.834160 0.147890
v -0.147890 1.834160 -0.147890
v -0.147890 1.834160 0.147890
v 0.147890 1.522810 -0.147890
v 0.147890 1.522810 0.147890
v -0.147890 1.522810 -0.147890
v -0.147890 1.522810 0.147890
v -1.003045 1.834160 0.147890
v -1.003045 1.834160 -0.147890
v -1.003045 1.522810 0.147890
v -1.003045 1.522810 -0.147890
vt 0.375000 0.000000
vt 0.625000 0.000000
vt 0.625000 0.250000
vt 0.375000 0.250000
vt 0.375000 0.250000
vt 0.625000 0.250000
vt 0.625000 0.500000
vt 0.375000 0.500000
vt 0.625000 0.750000
vt 0.375000 0.750000
vt 0.625000 0.750000
vt 0.625000 0.750000
vt 0.375000 0.750000
vt 0.375000 0.250000
vt 0.625000 0.250000
vt 0.625000 0.750000
vt 0.375000 0.750000
vt 0.625000 0.500000
vt 0.875000 0.500000
vt 0.875000 0.750000
vt 0.625000 0.750000
vt 0.375000 0.000000
vt 0.625000 0.000000
vt 0.375000 0.500000
vt 0.125000 0.500000
vt 0.125000 0.500000
vt 0.375000 0.500000
vt 0.625000 1.000000
vt 0.625000 0.750000
vt 0.625000 0.750000
vt 0.625000 1.000000
vt 0.375000 0.500000
vt 0.125000 0.500000
vt 0.625000 1.000000
vt 0.375000 0.250000
vt 0.375000 0.000000
vt 0.665455 1.000000
vt 0.000000 1.000000
vt 0.000000 0.000000
vt 0.665455 0.000000
vt 0.375000 0.250000
vt 0.625000 0.250000
vt 0.375000 0.250000
vt 0.375000 0.000000
vt 0.375000 0.500000
vt 0.125000 0.500000
vt 0.125000 0.500000
vt 0.125000 0.500000
vt 0.125000 0.500000
vt 0.125000 0.500000
vt 0.375000 0.250000
vt 0.375000 0.250000
vt 0.125000 0.750000
vt 0.125000 0.750000
vt 0.625000 1.000000
vt 0.625000 0.750000
vt 0.625000 0.750000
vt 0.625000 1.000000
vt 0.375000 0.250000
vt 0.375000 0.250000
vt 0.125000 0.750000
vt 0.375000 0.250000
vt 0.375000 0.500000
vt 0.375000 0.500000
vt 0.375000 0.250000
vt 0.625000 1.000000
vt 0.375000 0.750000
vt 0.625000 0.750000
vt 0.625000 1.000000
vt 0.375000 1.000000
vt 0.625000 0.750000
vt 0.625000 0.750000
vt 0.625000 1.000000
vt 0.625000 1.000000
vt 0.375000 0.250000
vt 0.375000 0.250000
vt 0.375000 0.000000
vt 0.375000 0.250000
vt 0.625000 0.250000
vt 0.625000 0.000000
vt 0.375000 0.250000
vt 0.375000 0.500000
vt 0.625000 0.500000
vt 0.625000 0.250000
vt 0.375000 0.750000
vt 0.625000 0.750000
vt 0.375000 0.750000
vt 0.625000 0.750000
vt 0.625000 0.750000
vt 0.625000 0.250000
vt 0.375000 0.250000
vt 0.375000 0.750000
vt 0.625000 0.750000
vt 0.625000 0.500000
vt 0.625000 0.750000
vt 0.875000 0.750000
vt 0.875000 0.500000
vt 0.625000 0.000000
vt 0.375000 0.000000
vt 0.375000 0.500000
vt 0.375000 0.500000
vt 0.125000 0.500000
vt 0.125000 0.500000
vt 0.625000 1.000000
vt 0.625000 1.000000
vt 0.625000 0.750000
vt 0.625000 0.750000
vt 0.125000 0.500000
vt 0.375000 0.500000
vt 0.625000 1.000000
vt 0.375000 0.000000
vt 0.375000 0.250000
vt 0.665455 1.000000
vt 0.665455 0.000000
vt 0.000000 0.000000
vt 0.000000 1.000000
vt 0.625000 0.250000
vt 0.375000 0.250000
vt 0.375000 0.000000
vt 0.375000 0.250000
vt 0.125000 0.500000
vt 0.375000 0.500000
vt 0.125000 0.500000
vt 0.125000 0.500000
vt 0.125000 0.500000
vt 0.125000 0.500000
vt 0.375000 0.250000
vt 0.375000 0.250000
vt 0.125000 0.750000
vt 0.125000 0.750000
vt 0.625000 1.000000
vt 0.625000 1.000000
vt 0.625000 0.750000
vt 0.625000 0.750000
vt 0.375000 0.250000
vt 0.375000 0.250000
vt 0.125000 0.750000
vt 0.375000 0.250000
vt 0.375000 0.250000
vt 0.375000 0.500000
vt 0.375000 0.500000
vt 0.625000 1.000000
vt 0.375000 0.750000
vt 0.375000 1.000000
vt 0.625000 1.000000
vt 0.625000 0.750000
vt 0.625000 0.750000
vt 0.625000 0.750000
vt 0.625000 1.000000
vt 0.625000 1.000000
vt 0.375000 0.250000
vt 0.375000 0.250000
vn 0.0000 1.0000 0.0000
vn 0.0000 0.0000 1.0000
vn -1.0000 0.0000 0.0000
vn 0.0000 0.0000 -1.0000
vn 0.0000 -1.0000 0.0000
vn 1.0000 0.0000 0.0000
usemtl Material.002
s off
f 1/1/1 5/2/1 7/3/1 3/4/1
f 4/5/2 3/6/2 7/7/2 8/8/2
f 8/8/3 7/7/3 5/9/3 6/10/3
f 6/10/4 2/11/4 31/12/4 29/13/4
f 3/6/2 4/5/2 16/14/2 15/15/2
f 6/10/2 5/9/2 12/16/2 10/17/2
f 10/18/4 12/19/4 11/20/4 9/21/4
f 2/11/2 6/10/2 10/17/2 9/21/2
f 5/2/2 1/1/2 11/22/2 12/23/2
f 1/24/2 2/25/2 9/26/2 11/27/2
f 16/28/2 14/29/2 22/30/2 21/31/2
f 2/25/4 1/24/4 13/32/4 14/33/4
f 4/34/5 2/11/5 14/29/5 16/28/5
f 1/1/1 3/4/1 15/35/1 13/36/1
f 18/37/6 17/38/6 19/39/6 20/40/6
f 15/15/2 16/14/2 20/41/2 19/42/2
f 13/36/1 15/35/1 19/43/1 17/44/1
f 14/33/4 13/32/4 17/45/4 18/46/4
f 22/47/4 24/48/4 28/49/4 26/50/4
f 14/33/2 18/46/2 24/48/2 22/47/2
f 20/41/2 16/14/2 21/51/2 23/52/2
f 18/46/2 20/53/2 23/54/2 24/48/2
f 25/55/5 26/56/5 28/57/5 27/58/5
f 21/31/3 22/30/3 26/56/3 25/55/3
f 23/52/2 21/51/2 25/59/2 27/60/2
f 24/48/6 23/54/6 27/61/6 28/49/6
f 32/62/2 30/63/2 34/64/2 36/65/2
f 4/5/2 8/8/2 30/63/2 32/62/2
f 8/8/3 6/10/3 29/13/3 30/63/3
f 2/11/6 4/34/6 32/66/6 31/12/6
f 33/67/5 35/68/5 36/69/5 34/70/5
f 30/63/3 29/13/3 33/67/3 34/64/3
f 35/68/4 31/12/4 38/71/4 40/72/4
f 29/13/4 31/12/4 35/68/4 33/67/4
f 38/71/6 37/73/6 39/74/6 40/72/6
f 32/62/2 36/65/2 39/75/2 37/76/2
f 36/69/5 35/68/5 40/72/5 39/74/5
f 31/12/1 32/66/1 37/73/1 38/71/1
f 41/77/1 43/78/1 47/79/1 45/80/1
f 44/81/2 48/82/2 47/83/2 43/84/2
f 48/82/6 46/85/6 45/86/6 47/83/6
f 46/85/4 69/87/4 71/88/4 42/89/4
f 43/84/2 55/90/2 56/91/2 44/81/2
f 46/85/2 50/92/2 52/93/2 45/86/2
f 50/94/4 49/95/4 51/96/4 52/97/4
f 42/89/2 49/95/2 50/92/2 46/85/2
f 45/80/2 52/98/2 51/99/2 41/77/2
f 41/100/2 51/101/2 49/102/2 42/103/2
f 56/104/2 61/105/2 62/106/2 54/107/2
f 42/103/4 54/108/4 53/109/4 41/100/4
f 44/110/5 56/104/5 54/107/5 42/89/5
f 41/77/1 53/111/1 55/112/1 43/78/1
f 58/113/3 60/114/3 59/115/3 57/116/3
f 55/90/2 59/117/2 60/118/2 56/91/2
f 53/111/1 57/119/1 59/120/1 55/112/1
f 54/108/4 58/121/4 57/122/4 53/109/4
f 62/123/4 66/124/4 68/125/4 64/126/4
f 54/108/2 62/123/2 64/126/2 58/121/2
f 60/118/2 63/127/2 61/128/2 56/91/2
f 58/121/2 64/126/2 63/129/2 60/130/2
f 65/131/5 67/132/5 68/133/5 66/134/5
f 61/105/6 65/131/6 66/134/6 62/106/6
f 63/127/2 67/135/2 65/136/2 61/128/2
f 64/126/3 68/125/3 67/137/3 63/129/3
f 72/138/2 76/139/2 74/140/2 70/141/2
f 44/81/2 72/138/2 70/141/2 48/82/2
f 48/82/6 70/141/6 69/87/6 46/85/6
f 42/89/3 71/88/3 72/142/3 44/110/3
f 73/143/5 74/144/5 76/145/5 75/146/5
f 70/141/6 74/140/6 73/143/6 69/87/6
f 75/146/4 80/147/4 78/148/4 71/88/4
f 69/87/4 73/143/4 75/146/4 71/88/4
f 78/148/3 80/147/3 79/149/3 77/150/3
f 72/138/2 77/151/2 79/152/2 76/139/2
f 76/145/5 79/149/5 80/147/5 75/146/5
f 71/88/1 78/148/1 77/150/1 72/142/1
